# xmcd
#
# Track frame offsets: 
#        150
#        10441
#        24654
#        34421
#        42552
#        47745
#        63851
#        68688
#        80284
#        94357
#        112107
#        131759
#        150360
#
# Disc length: 2204 seconds
#
# Revision: 0
# Processed by: cddbd v1.5.1PL0 Copyright (c) Steve Scherf et al.
# Submitted via: ExactAudioCopy v0.95a3
#
DISCID=ae089a0d
DTITLE=Various Artist - Around The Bend
DYEAR=2004
DGENRE=Soundtrack
TTITLE0=David Baerwald - Opening
TTITLE1=Leon Russell - Roll Away The Stone
TTITLE2=Nilsson - Daddy's Song
TTITLE3=David Baerwald - Bags
TTITLE4=David Baerwald and The New Velvet Pillow Orchestra - Even A Pris
TTITLE4=oner Can Dream
TTITLE5=Warren Zevon - Carmelita
TTITLE6=David Baerwald - Major
TTITLE7=Bob Dylan - On The Road Again
TTITLE8=Fleetwood Mac - Hi Ho Silver
TTITLE9=David Baerwald and The New Velvet Pillow Orchestra - Old Shoes
TTITLE10=David Baerwald - Staircase - Turner's Death
TTITLE11=Leon Russell - A Song For You
TTITLE12=David Baerwald and The New Velvet Pillow Orchestra - Some Day W
TTITLE12=hen You're Young Again
EXTD=
EXTT0=
EXTT1=
EXTT2=
EXTT3=
EXTT4=
EXTT5=
EXTT6=
EXTT7=
EXTT8=
EXTT9=
EXTT10=
EXTT11=
EXTT12=
PLAYORDER=
